HIERARCHY
ROOT root
{
	OFFSET 0.000000 0.000000 0.000000
	CHANNELS 6 Xposition Yposition Zposition Zrotation Yrotation Xrotation
	JOINT lhip
	{
		OFFSET 0.058581 -0.082280 -0.017664
		CHANNELS 3 Zrotation Yrotation Xrotation
		JOINT lknee
		{
			OFFSET 0.043451 -0.386469 0.008037
			CHANNELS 3 Zrotation Yrotation Xrotation
			JOINT lankle
			{
				OFFSET -0.014790 -0.426874 -0.037428
				CHANNELS 3 Zrotation Yrotation Xrotation
				JOINT ltoe
				{
					OFFSET 0.041054 -0.060286 0.122042
					CHANNELS 3 Zrotation Yrotation Xrotation
					End Site
					{
						OFFSET 0.000000 0.000000 0.000000
					}
				}
			}
		}
	}
	JOINT rhip
	{
		OFFSET -0.060310 -0.090513 -0.013543
		CHANNELS 3 Zrotation Yrotation Xrotation
		JOINT rknee
		{
			OFFSET -0.043257 -0.383688 -0.004843
			CHANNELS 3 Zrotation Yrotation Xrotation
			JOINT rankle
			{
				OFFSET 0.019056 -0.420046 -0.034562
				CHANNELS 3 Zrotation Yrotation Xrotation
				JOINT rtoe
				{
					OFFSET -0.034840 -0.062106 0.130323
					CHANNELS 3 Zrotation Yrotation Xrotation
					End Site
					{
						OFFSET 0.000000 0.000000 0.000000
					}
				}
			}
		}
	}
	JOINT lowerback
	{
		OFFSET 0.004439 0.124404 -0.038385
		CHANNELS 3 Zrotation Yrotation Xrotation
		JOINT upperback
		{
			OFFSET 0.004488 0.137956 0.026820
			CHANNELS 3 Zrotation Yrotation Xrotation
			JOINT chest
			{
				OFFSET -0.002265 0.056032 0.002855
				CHANNELS 3 Zrotation Yrotation Xrotation
				JOINT lowerneck
				{
					OFFSET -0.013390 0.211636 -0.033468
					CHANNELS 3 Zrotation Yrotation Xrotation
					JOINT upperneck
					{
						OFFSET 0.010113 0.088937 0.050410
						CHANNELS 3 Zrotation Yrotation Xrotation
						End Site
						{
							OFFSET 0.000000 0.000000 0.000000
						}
					}
				}
				JOINT lclavicle
				{
					OFFSET 0.071702 0.114000 -0.018898
					CHANNELS 3 Zrotation Yrotation Xrotation
					JOINT lshoulder
					{
						OFFSET 0.122921 0.045205 -0.019046
						CHANNELS 3 Zrotation Yrotation Xrotation
						JOINT lelbow
						{
							OFFSET 0.255332 -0.015649 -0.022946
							CHANNELS 3 Zrotation Yrotation Xrotation
							JOINT lwrist
							{
								OFFSET 0.265709 0.012698 -0.007375
								CHANNELS 3 Zrotation Yrotation Xrotation
								End Site
								{
									OFFSET 0.000000 0.000000 0.000000
								}
							}
						}
					}
				}
				JOINT rclavicle
				{
					OFFSET -0.082954 0.112472 -0.023707
					CHANNELS 3 Zrotation Yrotation Xrotation
					JOINT rshoulder
					{
						OFFSET -0.113228 0.046853 -0.008472
						CHANNELS 3 Zrotation Yrotation Xrotation
						JOINT relbow
						{
							OFFSET -0.260127 -0.014369 -0.031269
							CHANNELS 3 Zrotation Yrotation Xrotation
							JOINT rwrist
							{
								OFFSET -0.269108 0.006794 -0.006027
								CHANNELS 3 Zrotation Yrotation Xrotation
								End Site
								{
									OFFSET 0.000000 0.000000 0.000000
								}
							}
						}
					}
				}
			}
		}
	}
}
MOTION
Frames: 13
Frame Time: 0.033333
-0.564780 0.321066 0.984082 -93.087998 0.994822 88.610913 -2.188294 -2.951864 1.825977 -4.560857 -10.013788 12.718802 9.172404 20.118042 -15.821771 0.000000 -0.000000 0.000000 -1.912708 3.381994 -22.897469 -2.227873 -5.692383 63.372547 2.762262 -16.158087 -7.579399 0.000000 -0.000000 0.000000 -3.066834 -1.324021 3.276015 0.636389 0.322859 4.043916 -1.920166 -0.923780 2.668343 2.478651 0.427982 1.018218 0.958067 -1.647118 8.200541 -22.775145 3.530633 2.823501 -58.887842 1.237419 12.440629 6.792966 -45.485892 32.949917 14.670453 -4.891812 5.062134 21.109771 -2.679976 -0.712237 65.459674 -9.554287 16.635970 -8.866593 38.059277 26.249670 -12.600944 2.283737 -6.217542 
-0.601739 0.321178 0.987715 -89.730838 1.669820 89.232504 -1.085917 -2.168289 4.293753 -4.458405 -12.836041 11.325195 7.883752 18.483701 -15.941747 0.000000 -0.000000 0.000000 -2.367660 2.204802 -27.208004 -2.840821 -8.783364 55.640814 3.536360 -16.712709 -9.700425 0.000000 -0.000000 0.000000 -2.626065 -3.143726 4.133216 0.810953 -0.517635 3.364955 -1.560821 -2.240203 2.713551 2.325856 0.357580 0.797766 1.713820 -1.826357 7.940553 -22.816142 2.936100 2.857642 -58.506888 -3.506946 14.125576 5.091576 -52.641359 35.966184 15.047664 -7.095542 5.831520 20.906729 -3.904831 -0.514660 65.094505 -12.581197 15.015311 -11.338677 32.615557 23.812430 -12.385307 1.245495 -6.039273 
-0.639602 0.321640 0.987154 -87.028592 1.990771 89.708203 -0.022996 -0.723923 6.628958 -4.437303 -15.195599 10.537979 6.850959 16.920459 -16.290378 0.000000 -0.000000 0.000000 -2.803138 0.553658 -29.958656 -2.614560 -10.391243 45.620046 4.499118 -16.620495 -9.863485 0.000000 -0.000000 0.000000 -2.223054 -4.339884 5.003510 0.782940 -1.290730 2.687030 -1.204109 -3.409688 2.824879 1.789546 -0.047751 0.542050 2.683683 -1.927321 7.470536 -22.490079 1.695753 2.817147 -57.568097 -7.959049 15.336339 2.352993 -59.161702 40.293055 15.724339 -9.140950 6.801901 20.252445 -4.745820 -0.627157 65.143108 -15.596867 13.148899 -13.360249 27.578570 21.343067 -12.253425 -0.128701 -6.506511 
-0.679125 0.322753 0.983314 -84.988066 1.991236 90.133444 0.906073 0.885131 8.942226 -4.453724 -16.862789 10.099714 5.974515 15.713778 -16.619076 0.000000 -0.000000 0.000000 -3.097105 -1.008167 -31.272509 -1.087463 -9.965997 34.011168 5.723834 -15.433100 -8.228033 0.000000 -0.000000 0.000000 -2.071698 -5.103000 5.393950 0.738426 -2.093341 2.492619 -0.781542 -4.285485 2.849792 0.972040 -0.551721 0.351230 3.665987 -1.804550 6.983399 -22.023249 0.136564 2.611754 -56.420488 -11.893010 16.072057 -0.344170 -64.761923 43.529233 16.821237 -11.060906 7.228742 19.558923 -5.185397 -0.727441 65.042388 -18.261796 11.380277 -14.823645 23.314819 18.505690 -11.747502 -1.407327 -7.400338 
-0.720414 0.324983 0.977931 -83.394262 1.964805 90.696891 2.045342 1.996551 10.902561 -4.689650 -18.099536 10.361034 4.793622 14.723979 -16.907707 0.000000 -0.000000 0.000000 -3.124937 -1.615337 -31.239445 0.468434 -7.791505 21.986553 7.239712 -13.166461 -6.813907 0.000000 -0.000000 0.000000 -1.949293 -5.677812 5.190756 0.811602 -3.019337 2.620624 -0.361710 -4.919764 2.728990 0.073736 -0.745588 0.479292 4.493229 -1.640558 6.333275 -21.423076 -1.251269 2.455283 -55.379534 -14.987555 16.324455 -2.069742 -69.472335 45.276799 17.932872 -12.661874 6.904024 18.922434 -5.518577 -0.610223 64.365146 -20.540155 10.011660 -15.346883 20.542187 17.338723 -10.979143 -2.161698 -8.254772 
-0.764318 0.328340 0.972650 -81.976537 2.034564 91.341949 3.480096 2.424256 12.418159 -5.198335 -19.420682 11.717993 3.209428 13.786777 -16.800711 0.000000 -0.000000 0.000000 -3.001930 -1.491622 -30.174233 1.490076 -5.858472 12.157775 7.791260 -11.998871 -7.489699 0.000000 -0.000000 0.000000 -1.756159 -6.310824 4.326787 1.025012 -3.976927 3.099800 -0.042717 -5.523640 2.512315 -0.600678 -0.617115 0.691075 4.821213 -1.281831 5.978045 -20.869138 -2.003768 2.545582 -54.484497 -17.102004 16.191170 -2.288156 -73.209580 45.659325 18.671310 -13.750593 6.268287 18.391317 -5.961817 -0.492606 63.073897 -22.345340 9.318682 -15.111298 19.373187 18.057039 -10.034047 -2.174935 -9.277035 
-0.811952 0.332643 0.968577 -80.863082 2.213717 91.786099 4.745698 1.931087 13.643358 -5.867138 -20.637053 14.448455 1.466785 13.455131 -15.812891 0.000000 -0.000000 0.000000 -2.575794 -1.004795 -29.058684 2.383799 -6.854707 8.109137 7.564375 -12.833133 -9.372598 0.000000 -0.000000 0.000000 -1.567594 -7.022037 3.132568 1.372436 -4.668480 3.774120 0.104801 -6.045801 2.257370 -0.842376 -0.305139 1.005121 4.586480 -0.943773 5.891698 -20.557439 -1.959899 2.826621 -53.823255 -18.142415 15.944047 -0.734242 -75.678337 44.500190 18.651318 -14.163912 6.232554 18.179318 -6.648827 -0.477406 61.340690 -23.603878 9.172664 -14.382003 19.551955 19.777983 -9.469663 -1.742943 -9.830505 
-0.863445 0.338464 0.965334 -80.732861 2.594935 92.061345 5.662260 1.112338 14.420098 -6.649800 -20.577910 18.652841 -0.502183 13.618829 -13.243032 0.000000 -0.000000 0.000000 -1.119650 0.025896 -28.354136 2.539097 -8.538637 10.345710 6.842059 -12.887279 -11.283615 0.000000 -0.000000 0.000000 -1.366848 -7.515756 1.617027 1.805012 -4.833867 4.598346 0.082845 -6.189977 1.820646 -0.686947 0.191828 1.649556 4.018941 -0.994322 5.759829 -20.336929 -1.188760 2.913210 -53.861237 -17.706167 15.831836 1.544430 -76.633375 42.352911 17.963006 -13.942587 6.505259 18.144810 -7.493247 -0.431444 59.926589 -24.201029 8.850194 -13.640722 20.370830 21.457697 -9.384137 -1.236982 -10.083054 
-0.917482 0.345243 0.962151 -81.550021 2.970711 92.280551 6.131367 0.351605 13.999476 -7.621151 -18.202991 24.962108 -2.052664 13.809609 -7.888371 0.000000 -0.000000 0.000000 0.708536 1.473367 -27.411739 2.344980 -7.969710 14.045506 4.144986 -12.466231 -9.883562 0.000000 -0.000000 0.000000 -0.926854 -7.575118 -0.403744 2.083505 -4.622046 5.498681 -0.247343 -5.958454 1.614262 -0.719287 0.228893 2.097159 3.601219 -0.706552 5.795933 -20.463160 0.068078 2.674982 -54.157913 -16.101456 15.460103 2.000960 -76.207006 41.883323 16.492399 -13.159127 6.957005 18.185341 -8.273398 -0.322862 59.250049 -24.096816 8.451756 -13.092449 21.427704 22.701814 -9.402200 -1.094212 -10.799608 
-0.971135 0.352824 0.960363 -83.289672 4.002448 91.658802 7.096813 0.027306 12.628958 -8.815900 -14.324880 33.817751 -3.012559 13.608451 0.779673 0.000000 -0.000000 0.000000 2.710801 3.487073 -26.344197 2.600054 -6.697840 18.968041 -0.265397 -13.865031 -8.462070 0.000000 -0.000000 0.000000 0.220276 -7.325830 -1.261726 2.431859 -3.524752 6.484360 -0.660731 -5.463119 1.440291 -0.711882 -0.298874 1.411872 3.053291 -0.275091 6.491942 -21.376417 1.379280 2.273457 -54.309060 -14.080255 14.916685 2.264124 -74.398924 41.892525 14.583815 -11.937529 7.809309 18.801192 -8.379028 -0.538315 58.881022 -23.437593 8.291463 -12.753539 22.415780 23.364988 -9.514676 -1.128545 -11.561179 
-1.021966 0.358817 0.960671 -85.387025 5.423301 89.935109 7.808918 -0.042237 10.289690 -9.197664 -10.236733 44.639649 -3.469147 13.889249 9.291675 0.000000 -0.000000 0.000000 5.113100 5.365868 -23.316178 2.923587 -6.439607 23.101887 -3.822550 -13.840495 -9.592035 0.000000 -0.000000 0.000000 1.567021 -6.735234 0.113992 2.861256 -2.334544 7.250373 -0.799324 -4.616296 0.854593 -0.685500 -0.969179 0.667746 2.626921 -0.046517 7.013582 -22.310867 1.996102 2.130621 -55.229852 -11.463527 14.381484 5.583965 -71.057184 39.213521 13.028338 -10.350185 9.040106 19.367186 -6.993031 -0.483717 59.545427 -21.931015 7.928129 -12.882359 23.322847 23.403312 -9.161126 -1.128460 -12.182780 
-1.069488 0.364313 0.962191 -87.028702 5.822056 88.668279 7.344422 -0.649371 5.954047 -8.226463 -5.790726 54.892730 -2.218960 16.189200 9.258444 0.000000 -0.000000 0.000000 6.975386 4.986824 -18.850153 2.667075 -6.229439 24.126333 -5.322726 -12.438643 -12.321575 0.000000 -0.000000 0.000000 1.782414 -4.953324 1.052159 3.046690 -2.221368 7.874577 -0.759545 -3.747968 0.595529 -0.253382 -1.280304 0.661998 2.474537 -0.654411 7.164298 -22.552073 1.838819 2.335938 -56.774579 -8.773469 13.660672 8.297303 -65.667187 37.164119 12.146356 -8.119741 9.731291 19.998055 -5.189224 -0.058216 60.615890 -19.156932 8.104641 -12.486077 24.324658 24.824989 -9.515293 -1.611689 -12.816899 
-1.115416 0.369031 0.965776 -88.768070 5.239175 87.552356 6.229751 -1.451571 1.156594 -7.267835 -2.157124 61.683539 -0.596245 17.196836 3.152118 0.000000 -0.000000 0.000000 7.697717 4.119531 -13.670151 2.663157 -4.244680 23.315087 -5.246317 -11.825083 -14.370036 0.000000 -0.000000 0.000000 1.048011 -2.323861 1.988768 3.046543 -2.138338 7.897952 -0.669679 -2.910794 0.519127 0.332101 -1.652468 1.496247 2.348952 -1.576015 7.532917 -22.513247 1.334960 2.641984 -58.400695 -6.149786 13.159476 9.829141 -58.417783 35.484308 11.490662 -5.620822 9.422980 20.579051 -3.423367 0.151135 61.595583 -15.905482 9.540107 -11.630765 25.879844 26.812470 -9.960383 -2.335934 -12.597031 
